<?xml version="1.0" encoding="utf-8"?>
<!-- Generator: Adobe Illustrator 15.0.0, SVG Export Plug-In . SVG Version: 6.00 Build 0)  -->
<!DOCTYPE svg PUBLIC "-//W3C//DTD SVG 1.1//EN" "http://www.w3.org/Graphics/SVG/1.1/DTD/svg11.dtd">
<svg version="1.1" xmlns="http://www.w3.org/2000/svg" xmlns:xlink="http://www.w3.org/1999/xlink" x="0px" y="0px"
	 width="41.789px" height="12.021px" viewBox="0 0 41.789 12.021" enable-background="new 0 0 41.789 12.021" xml:space="preserve">
<g id="Layer_1">
	<polygon fill="#3DC3E2" points="41.769,12.021 18.81,12 18.805,5.656 32.977,0 41.789,5.126 	"/>
	<path d="M1.189,11.119h3.328v0.902H0V3.49h1.189V11.119z"/>
	<path d="M5.191,8.33c0-0.84,0.22-1.531,0.659-2.074s1.042-0.814,1.808-0.814c0.762,0,1.363,0.271,1.805,0.812
		s0.662,1.233,0.662,2.077v0.809c0,0.848-0.22,1.54-0.659,2.077s-1.04,0.806-1.802,0.806c-0.77,0-1.374-0.269-1.813-0.806
		S5.191,9.986,5.191,9.139V8.33z M6.381,9.134c0,0.579,0.105,1.056,0.316,1.428s0.533,0.558,0.967,0.558
		c0.422,0,0.739-0.186,0.952-0.558s0.319-0.849,0.319-1.428V8.323c0-0.571-0.106-1.045-0.319-1.419
		C8.403,6.531,8.084,6.344,7.658,6.344c-0.43,0-0.75,0.186-0.961,0.558S6.381,7.748,6.381,8.323V9.134z"/>
	<path d="M12.949,9.109h-0.504v2.912h-1.184V2.881h1.184v5.326h0.486l1.4-2.525h1.389l-1.84,2.859l2.104,3.48h-1.383L12.949,9.109z"
		/>
	<path d="M16.304,2.881h1.189v1.137h-1.189 M17.493,12.021h-1.189v-6.34h1.189V12.021z"/>
	<g>
		<path d="M22.885,10.311c0-0.246-0.081-0.454-0.243-0.624s-0.468-0.356-0.917-0.56c-0.652-0.254-1.136-0.524-1.45-0.812
			s-0.472-0.659-0.472-1.116c0-0.488,0.192-0.903,0.577-1.245s0.89-0.513,1.515-0.513c0.652,0,1.172,0.185,1.559,0.554
			s0.572,0.829,0.557,1.38L23.999,7.41h-1.143c0-0.301-0.085-0.56-0.255-0.776s-0.405-0.325-0.706-0.325
			c-0.297,0-0.528,0.084-0.694,0.252s-0.249,0.365-0.249,0.592c0,0.242,0.071,0.434,0.214,0.574s0.45,0.324,0.923,0.551
			c0.664,0.238,1.157,0.509,1.479,0.812s0.483,0.69,0.483,1.163c0,0.523-0.199,0.949-0.598,1.277s-0.922,0.492-1.57,0.492
			c-0.699,0-1.25-0.198-1.652-0.595s-0.594-0.86-0.574-1.392L19.668,10h1.107c0.016,0.41,0.129,0.706,0.34,0.888
			s0.473,0.272,0.785,0.272c0.309,0,0.55-0.079,0.724-0.237S22.885,10.561,22.885,10.311z"/>
		<path d="M28.381,11.898c-0.043-0.145-0.078-0.286-0.105-0.425s-0.045-0.278-0.053-0.419c-0.176,0.285-0.396,0.518-0.662,0.697
			s-0.561,0.27-0.885,0.27c-0.535,0-0.954-0.169-1.257-0.507s-0.454-0.79-0.454-1.356c0-0.605,0.206-1.081,0.618-1.427
			s0.991-0.519,1.737-0.519h0.885V7.566c0-0.384-0.086-0.684-0.258-0.899s-0.416-0.323-0.732-0.323
			c-0.285,0-0.515,0.097-0.688,0.291s-0.261,0.437-0.261,0.728l-1.131-0.006l-0.018-0.035c-0.02-0.489,0.176-0.925,0.586-1.307
			s0.939-0.573,1.588-0.573c0.625,0,1.132,0.185,1.521,0.554s0.583,0.896,0.583,1.579v2.941c0,0.246,0.015,0.483,0.044,0.712
			s0.077,0.452,0.144,0.671H28.381z M26.946,11.119c0.277,0,0.53-0.082,0.759-0.247s0.396-0.371,0.501-0.619V8.951h-0.902
			c-0.363,0-0.646,0.117-0.847,0.351s-0.302,0.52-0.302,0.857c0,0.286,0.068,0.519,0.205,0.695S26.692,11.119,26.946,11.119z"/>
		<path d="M32.014,11.898h-1.189V2.758h1.189V11.898z"/>
		<path d="M34.721,11.898h-1.189V2.758h1.189V11.898z"/>
		<path d="M38.454,12.021c-0.754,0-1.357-0.262-1.811-0.785s-0.68-1.193-0.68-2.01V8.301c0-0.828,0.222-1.512,0.665-2.051
			s1.007-0.809,1.69-0.809c0.719,0,1.271,0.245,1.658,0.735s0.58,1.149,0.58,1.978v0.82h-3.41v0.252c0,0.547,0.12,0.999,0.36,1.356
			s0.581,0.536,1.022,0.536c0.328,0,0.609-0.052,0.844-0.155s0.457-0.255,0.668-0.454l0.375,0.738
			c-0.199,0.227-0.467,0.412-0.803,0.557S38.891,12.021,38.454,12.021z M38.319,6.344c-0.344,0-0.619,0.168-0.826,0.504
			c-0.207,0.337-0.322,0.763-0.346,1.277h2.232V7.883c0-0.452-0.09-0.821-0.27-1.108S38.667,6.344,38.319,6.344z"/>
	</g>
</g>
<g id="Layer_2">
</g>
</svg>
