<?xml version="1.0" encoding="UTF-8" standalone="no"?>
<!-- Created with Inkscape (http://www.inkscape.org/) -->

<svg
   xmlns:dc="http://purl.org/dc/elements/1.1/"
   xmlns:cc="http://creativecommons.org/ns#"
   xmlns:rdf="http://www.w3.org/1999/02/22-rdf-syntax-ns#"
   xmlns:svg="http://www.w3.org/2000/svg"
   xmlns="http://www.w3.org/2000/svg"
   version="1.2"
   width="118.2603"
   height="81.332817"
   id="svg2">
  <defs
     id="defs4" />
  <metadata
     id="metadata7">
    <rdf:RDF>
      <cc:Work
         rdf:about="">
        <dc:format>image/svg+xml</dc:format>
        <dc:type
           rdf:resource="http://purl.org/dc/dcmitype/StillImage" />
        <dc:title></dc:title>
      </cc:Work>
    </rdf:RDF>
  </metadata>
  <g
     transform="translate(-116.78713,-210.16722)"
     id="layer1">
    <g
       id="text2985"
       style="font-size:40px;font-style:normal;font-variant:normal;font-weight:normal;font-stretch:normal;line-height:88.99999857%;letter-spacing:0px;word-spacing:0px;fill:#000000;fill-opacity:1;stroke:none;font-family:Lohit Devanagari;-inkscape-font-specification:Lohit Devanagari">
      <g
         transform="translate(-13.463356,0.0947018)"
         id="flowRoot3010"
         style="font-size:56px;fill:#000000;font-family:Sans">
        <path
           d="m 130.25049,210.82398 5.62207,0 0,36.82178 20.23389,0 0,4.73144 -25.85596,0 0,-41.55322"
           id="path3188"
           style="font-size:57px" />
        <path
           d="m 176.84131,214.63697 c -4.08205,4e-5 -7.32912,1.52152 -9.74121,4.56445 -2.39357,3.043 -3.59034,7.18997 -3.59033,12.44092 -1e-5,5.23244 1.19676,9.37013 3.59033,12.41308 2.41209,3.04298 5.65916,4.56446 9.74121,4.56446 4.082,0 7.31052,-1.52148 9.68555,-4.56446 2.39352,-3.04295 3.59029,-7.18064 3.59033,-12.41308 -4e-5,-5.25095 -1.19681,-9.39792 -3.59033,-12.44092 -2.37503,-3.04293 -5.60355,-4.56441 -9.68555,-4.56445 m 0,-4.56446 c 5.82614,5e-5 10.48336,1.95756 13.97168,5.87256 3.48824,3.89652 5.23238,9.12894 5.23242,15.69727 -4e-5,6.54982 -1.74418,11.78223 -5.23242,15.69726 -3.48832,3.89649 -8.14554,5.84473 -13.97168,5.84473 -5.84474,0 -10.52052,-1.94824 -14.02735,-5.84473 -3.48828,-3.89647 -5.23242,-9.12889 -5.23242,-15.69726 0,-6.56833 1.74414,-11.80075 5.23242,-15.69727 3.50683,-3.915 8.18261,-5.87251 14.02735,-5.87256"
           id="path3190"
           style="font-size:57px" />
        <path
           d="m 204.84033,210.82398 5.62207,0 0,17.56201 18.64746,-17.56201 7.23633,0 -20.62353,19.37109 22.09863,22.18213 -7.40332,0 -19.95557,-20.01123 0,20.01123 -5.62207,0 0,-41.55322"
           id="path3192"
           style="font-size:57px" />
        <path
           d="m 242.24658,210.82398 5.62207,0 0,41.55322 -5.62207,0 0,-41.55322"
           id="path3194"
           style="font-size:57px" />
      </g>
      <g
         id="text3018"
         style="fill:#000000;font-family:Sans">
        <path
           d="m 135.69196,262.7305 0,3.84766 c -1.49741,-0.71613 -2.91017,-1.24998 -4.23828,-1.60157 -1.32814,-0.35153 -2.61069,-0.52731 -3.84765,-0.52734 -2.14845,3e-5 -3.80861,0.41669 -4.98047,1.25 -1.15886,0.83336 -1.73829,2.01825 -1.73828,3.55469 -1e-5,1.28908 0.3841,2.26564 1.15234,2.92968 0.78124,0.65106 2.25259,1.17841 4.41406,1.58204 l 2.38281,0.48828 c 2.9427,0.55991 5.11066,1.54949 6.50391,2.96875 1.40623,1.40626 2.10935,3.29428 2.10938,5.66406 -3e-5,2.82553 -0.95055,4.96745 -2.85157,6.42578 -1.88804,1.45833 -4.66147,2.1875 -8.32031,2.1875 -1.38022,0 -2.85157,-0.15625 -4.41406,-0.46875 -1.54949,-0.3125 -3.15756,-0.77474 -4.82422,-1.38672 l 0,-4.0625 c 1.60156,0.89844 3.17057,1.57553 4.70703,2.03125 1.53645,0.45573 3.04687,0.6836 4.53125,0.6836 2.25259,0 3.99087,-0.44271 5.21484,-1.32813 1.22394,-0.88541 1.83592,-2.14843 1.83594,-3.78906 -2e-5,-1.43228 -0.44272,-2.55208 -1.32812,-3.35938 -0.87242,-0.80728 -2.31122,-1.41274 -4.31641,-1.8164 l -2.40234,-0.46875 c -2.94272,-0.58593 -5.07162,-1.50389 -6.38672,-2.75391 -1.31511,-1.24998 -1.97266,-2.98826 -1.97266,-5.21484 0,-2.5781 0.90495,-4.60935 2.71485,-6.09375 1.82291,-1.48435 4.32941,-2.22654 7.51953,-2.22657 1.36717,3e-5 2.7604,0.12373 4.17968,0.3711 1.41926,0.24742 2.87108,0.61852 4.35547,1.11328"
           id="path3197" />
        <path
           d="m 154.12946,265.66019 -5.35156,14.51172 10.72266,0 -5.3711,-14.51172 m -2.22656,-3.88672 4.47266,0 11.11328,29.16015 -4.10156,0 -2.65625,-7.48046 -13.14454,0 -2.65625,7.48046 -4.16015,0 11.13281,-29.16015"
           id="path3199" />
        <path
           d="m 171.72712,261.77347 3.94531,0 0,25.83984 14.19922,0 0,3.32031 -18.14453,0 0,-29.16015"
           id="path3201" />
        <path
           d="m 193.99274,261.77347 3.94532,0 0,25.83984 14.19922,0 0,3.32031 -18.14454,0 0,-29.16015"
           id="path3203" />
        <path
           d="m 216.25837,261.77347 18.4375,0 0,3.32031 -14.49219,0 0,8.63281 13.88672,0 0,3.32032 -13.88672,0 0,10.5664 14.84375,0 0,3.32031 -18.78906,0 0,-29.16015"
           id="path3205" />
      </g>
    </g>
  </g>
</svg>
